HIERARCHY
ROOT Hips
{
	OFFSET 0.00000 0.00000 0.00000
	CHANNELS 6 Xposition Yposition Zposition Yrotation Zrotation Xrotation 
	JOINT Lumbar
	{
		OFFSET 0 0 0
		CHANNELS 3 Zrotation Xrotation Yrotation
		JOINT Neck
		{
			OFFSET 0.00 0.2701 0.00
			CHANNELS 3 Zrotation Xrotation Yrotation
			End Site
			{
				OFFSET 0.00 0.1379 0.00
			}
		}
		JOINT RightShoulder
		{
			OFFSET 0.0119 0.2289 0.1181
			CHANNELS 3 Zrotation Xrotation Yrotation
			JOINT RightElbow
			{
				OFFSET 0.00 -0.1475 0.00
				CHANNELS 2 Zrotation Yrotation
				JOINT RightWrist
				{
					OFFSET 0.00 -0.1605 0.00
					CHANNELS 2 Zrotation Xrotation
					End Site
					{
						OFFSET 0.0040 -0.1068 0.0006
					}
				}
			}
		}
		JOINT LeftShoulder
		{
			OFFSET 0.0119 0.2289 -0.1181
			CHANNELS 3 Zrotation Xrotation Yrotation
			JOINT LeftElbow
			{
				OFFSET 0.00 -0.1475 0.00
				CHANNELS 2 Zrotation Yrotation
				JOINT LeftWrist
				{
					OFFSET 0.00 -0.1605 0.00
					CHANNELS 2 Zrotation Xrotation
					End Site
					{
						OFFSET 0.0040 -0.1068 -0.0006
					}
				}
			}
		}
	}
	JOINT RightHip
	{
		OFFSET 0.0316 -0.0424 0.0458
		CHANNELS 3 Zrotation Xrotation Yrotation
		JOINT RightKnee
		{
			OFFSET 0.00 -0.2438 0.00
			CHANNELS 1 Zrotation
			JOINT RightAnkle
			{
				OFFSET 0.00 -0.2449 0.00
				CHANNELS 3 Zrotation Xrotation Yrotation
				End Site
				{
					OFFSET 0.1237 -0.0542 0.0051
				}
			}
		}
	}
	JOINT LeftHip
	{
		OFFSET 0.0316 -0.0424 -0.0458
		CHANNELS 3 Zrotation Xrotation Yrotation
		JOINT LeftKnee
		{
			OFFSET 0.00 -0.2438 0.00
			CHANNELS 1 Zrotation
			JOINT LeftAnkle
			{
				OFFSET 0.00 -0.2449 0.00
				CHANNELS 3 Zrotation Xrotation Yrotation
				End Site
				{
					OFFSET 0.1237 -0.0542 -0.0051
				}
			}
		}
	}
}
MOTION
Frames: 30
Frame Time: 0.02
0.14615 -0.15158 0.01207 181.60438 -29.95026 -0.39073 36.8243 0.67945 0.61225 -6.1867 -1.90965 -2.1199 38.29609 -44.73225 53.07811 99.39046 86.97096 5.44798 -0.45364 18.32866 24.03372 -42.86765 99.38567 -82.92231 5.45017 2.43462 97.02215 -11.50949 -8.41089 -77.22251 -7.5604 -2.26228 -3.38338 98.87965 12.1461 8.3917 -71.51902 -10.58907 2.82934 3.81253
0.14619 -0.15157 0.01207 181.57879 -29.94265 -0.35307 36.74139 0.65634 0.67135 -6.20954 -1.91412 -2.1199 38.16433 -44.47934 53.09471 99.24358 87.16444 6.82115 -0.62768 18.37988 24.02068 -42.93683 99.0782 -82.52273 6.3375 2.66828 97.02797 -11.47089 -8.36074 -77.20893 -7.56362 -2.26398 -3.38427 98.85821 12.13249 8.37908 -71.50586 -10.5934 2.83389 3.81506
0.14626 -0.15154 0.01207 181.54995 -29.92529 -0.30516 36.64318 0.62376 0.73145 -6.23237 -1.91959 -2.1199 38.04259 -44.19103 53.11631 99.12736 87.29761 8.47164 -0.85406 18.36407 23.92784 -42.90825 98.73753 -81.95877 7.35445 2.97391 97.02384 -11.43325 -8.30381 -77.18869 -7.5679 -2.26504 -3.38486 98.81909 12.13308 8.39432 -71.48693 -10.59835 2.83691 3.81692
0.14631 -0.15152 0.01207 181.52296 -29.91332 -0.26197 36.55381 0.59508 0.786 -6.25331 -1.92472 -2.1199 37.94995 -43.92092 53.13613 99.01657 87.42973 9.97704 -1.05689 18.37675 23.87303 -42.92869 98.41183 -81.46534 8.29669 3.23993 97.02485 -11.39687 -8.25106 -77.17224 -7.57168 -2.26614 -3.38544 98.78861 12.12899 8.39987 -71.47109 -10.60278 2.84042 3.81894
0.14638 -0.15151 0.01207 181.49411 -29.89727 -0.21868 36.45641 0.56826 0.8624 -6.2826 -1.92938 -2.1199 37.70943 -43.64091 53.15374 98.82654 87.68697 11.56925 -1.25902 18.40158 23.81524 -42.93655 98.08562 -80.98838 9.3064 3.53486 97.02335 -11.35304 -8.19386 -77.15253 -7.57553 -2.26833 -3.38666 98.75563 12.11789 8.39301 -71.45331 -10.60825 2.84481 3.82157
0.14642 -0.15148 0.01207 181.46841 -29.88761 -0.17314 36.3724 0.53521 0.89315 -6.29394 -1.93523 -2.1199 37.78654 -43.37262 53.17687 98.80599 87.66612 13.04324 -1.47495 18.38348 23.7427 -42.94425 97.75241 -80.43989 10.20663 3.78672 97.0249 -11.32497 -8.14414 -77.13804 -7.57951 -2.26806 -3.38647 98.7239 12.12435 8.41818 -71.43819 -10.6117 2.847 3.82279
0.14637 -0.15142 0.0121 181.45319 -29.89552 -0.1236 36.32563 0.48784 0.80066 -6.26049 -1.94428 -2.1199 38.67603 -43.15513 53.21649 99.26873 86.90961 14.13205 -1.71558 18.26596 23.65207 -42.98162 97.4149 -79.71843 10.76508 3.90193 97.03465 -11.3415 -8.11787 -77.13965 -7.58343 -2.26137 -3.3825 98.69678 12.17836 8.52934 -71.43188 -10.60927 2.84348 3.8202
0.14629 -0.15135 0.01213 181.44117 -29.91062 -0.0722 36.29349 0.43442 0.66166 -6.20798 -1.95444 -2.1199 39.89583 -42.94844 53.25999 99.89631 85.87315 15.08919 -1.96813 18.10639 23.54791 -43.01988 97.07046 -78.93456 11.20961 3.97115 97.04828 -11.37361 -8.09904 -77.14675 -7.58749 -2.2522 -3.37714 98.67209 12.24888 8.67077 -71.42841 -10.60484 2.83782 3.81624
0.14623 -0.15128 0.01215 181.42705 -29.92398 -0.0218 36.25691 0.38333 0.54188 -6.16118 -1.96399 -2.1199 41.00603 -42.73147 53.3016 100.43389 84.95089 16.10066 -2.21591 17.96392 23.44766 -43.05315 96.72483 -78.18812 11.71183 4.06177 97.06178 -11.39789 -8.0762 -77.15134 -7.59161 -2.24399 -3.37239 98.64825 12.31037 8.79582 -71.42361 -10.6014 2.83314 3.81295
0.14617 -0.15122 0.01218 181.41539 -29.93051 0.02965 36.21047 0.33354 0.43002 -6.12721 -1.97404 -2.1199 41.94814 -42.53857 53.34853 101.03771 84.07509 17.14781 -2.46381 17.82818 23.35527 -43.10364 96.39617 -77.39332 12.19575 4.15361 97.06796 -11.42565 -8.05622 -77.15578 -7.59524 -2.23641 -3.36769 98.61539 12.37951 8.93385 -71.41886 -10.59754 2.82832 3.80941
0.14609 -0.15114 0.01221 181.3996 -29.95315 0.07914 36.18826 0.27989 0.29087 -6.0615 -1.98329 -2.1199 43.31543 -42.29522 53.37944 101.54047 83.04495 18.08241 -2.71232 17.66864 23.24293 -43.1183 96.03119 -76.69202 12.68634 4.23001 97.09054 -11.44949 -8.03161 -77.16191 -7.59993 -2.22701 -3.36259 98.60231 12.43554 9.0505 -71.41467 -10.59419 2.82339 3.80611
0.14598 -0.15103 0.01223 181.37001 -30.01821 0.12354 36.22926 0.21594 0.08534 -5.91684 -1.99 -2.1199 45.80625 -41.94086 53.41819 101.73962 81.58331 18.7637 -2.97132 17.46017 23.09137 -43.04679 95.56609 -76.21686 13.2456 4.28399 97.15665 -11.46205 -7.99735 -77.17156 -7.60731 -2.21251 -3.35648 98.64161 12.45938 9.1112 -71.41195 -10.59167 2.81787 3.80341
0.14586 -0.1509 0.01225 181.3365 -30.09936 0.16569 36.29422 0.14861 -0.14557 -5.74003 -1.99586 -2.1199 48.70936 -41.53122 53.43325 101.82846 79.98732 19.32897 -3.22871 17.2287 22.91866 -42.93778 95.06539 -75.84656 13.81061 4.32234 97.23932 -11.4697 -7.95757 -77.18272 -7.61577 -2.19638 -3.35006 98.7011 12.46816 9.14767 -71.40959 -10.58989 2.81244 3.80105
0.14574 -0.15078 0.01227 181.3058 -30.17336 0.20836 36.34839 0.08358 -0.36335 -5.57539 -2.00213 -2.1199 51.40187 -41.12488 53.42114 101.95708 78.50508 19.93084 -3.47808 17.00336 22.74724 -42.83722 94.58183 -75.46145 14.35777 4.36114 97.31501 -11.47712 -7.91675 -77.19311 -7.62387 -2.1815 -3.34398 98.75252 12.47808 9.18769 -71.40667 -10.5885 2.80754 3.79882
0.14562 -0.15065 0.01229 181.2707 -30.24682 0.25334 36.4027 0.01497 -0.58965 -5.42077 -2.00838 -2.1199 54.19781 -40.80494 53.55903 102.1344 76.80196 20.60116 -3.76225 16.79319 22.60868 -42.77068 94.0929 -74.93972 14.96567 4.42499 97.38857 -11.49461 -7.89001 -77.20406 -7.63149 -2.16448 -3.33706 98.7994 12.51145 9.25854 -71.40552 -10.58411 2.80028 3.79543
0.14551 -0.15053 0.01231 181.24399 -30.32522 0.29279 36.46216 -0.04671 -0.80341 -5.23743 -2.01442 -2.1199 56.87967 -40.29941 53.39174 102.18289 75.51634 21.09706 -3.97667 16.54848 22.39902 -42.62715 93.60814 -74.72288 15.4495 4.43536 97.47037 -11.49086 -7.834 -77.21411 -7.64029 -2.15144 -3.33178 98.86042 12.49372 9.2612 -71.40074 -10.58599 2.7978 3.79447
0.1454 -0.15038 0.01233 181.23979 -30.4127 0.31888 36.53029 -0.08995 -0.97785 -4.98671 -2.02019 -2.1199 59.07519 -39.22824 52.27388 101.89308 75.54418 21.19137 -3.97011 16.19748 21.97931 -42.25605 93.13251 -75.36974 15.59285 4.28581 97.57166 -11.41967 -7.68555 -77.22142 -7.65262 -2.151 -3.33165 98.9563 12.32497 9.06205 -71.38568 -10.60669 2.81003 3.80093
0.14531 -0.15024 0.01234 181.24443 -30.50467 0.33922 36.60262 -0.12576 -1.13822 -4.70748 -2.02574 -2.1199 61.15128 -37.98381 50.86908 101.47812 75.9769 21.1056 -3.89836 15.81569 21.49225 -41.81293 92.66461 -76.31155 15.61103 4.08584 97.68052 -11.32888 -7.50999 -77.22771 -7.666 -2.15444 -3.33309 99.06556 12.10755 8.79829 -71.36697 -10.63341 2.82681 3.80969
0.14521 -0.1501 0.01235 181.24605 -30.59497 0.36131 36.67277 -0.16391 -1.30386 -4.43884 -2.03131 -2.1199 63.32894 -36.86336 49.67252 101.12615 76.13867 21.06848 -3.87573 15.45925 21.04863 -41.41904 92.20027 -77.08722 15.6848 3.92013 97.78535 -11.25377 -7.35559 -77.23436 -7.67853 -2.15533 -3.33343 99.16815 11.92151 8.5771 -71.35003 -10.65624 2.84047 3.81686
0.1451 -0.14994 0.01236 181.24334 -30.68431 0.38702 36.74501 -0.20657 -1.47537 -4.17936 -2.03721 -2.1199 65.3292 -35.55319 48.15406 100.74556 76.65222 21.1655 -3.77228 15.05465 20.55057 -40.9556 91.70409 -78.00098 15.76423 3.70735 97.89319 -11.15065 -7.1646 -77.24152 -7.69265 -2.15941 -3.33537 99.27389 11.69669 8.30055 -71.33263 -10.68383 2.85847 3.82629
0.14501 -0.14981 0.01238 181.25177 -30.77646 0.40381 36.81347 -0.238 -1.63069 -3.89406 -2.04235 -2.1199 67.65557 -34.59372 47.22879 100.39512 76.54407 20.94417 -3.81978 14.7426 20.14955 -40.61862 91.27743 -78.69709 15.802 3.57906 97.9964 -11.10032 -7.0423 -77.24734 -7.70373 -2.1579 -3.33441 99.37606 11.54021 8.1227 -71.31531 -10.70309 2.86863 3.83161
0.14499 -0.14974 0.01241 181.28921 -30.87547 0.39768 36.87101 -0.24059 -1.74687 -3.54807 -2.04579 -2.1199 70.98949 -34.67945 48.09184 100.16896 74.51185 19.86925 -4.31557 14.70021 20.0387 -40.66412 91.03347 -78.70884 15.75584 3.71218 98.08436 -11.20882 -7.12647 -77.24992 -7.70585 -2.13911 -3.32452 99.46417 11.59375 8.24718 -71.2993 -10.69669 2.85512 3.82448
0.14499 -0.14969 0.01244 181.33748 -30.97701 0.38272 36.92435 -0.23206 -1.84669 -3.17659 -2.04843 -2.1199 74.63759 -35.11745 49.54599 99.97617 71.86292 18.48467 -4.96186 14.75094 20.02689 -40.83667 90.86073 -78.49327 15.67169 3.92931 98.16737 -11.36969 -7.27897 -77.25115 -7.70493 -2.11474 -3.31176 99.54825 11.71617 8.47087 -71.28349 -10.68192 2.83371 3.81322
0.14498 -0.14962 0.01247 181.38056 -31.07722 0.37163 36.97911 -0.22841 -1.95248 -2.81457 -2.05124 -2.1199 78.09055 -35.3725 50.67829 99.76168 69.56553 17.25406 -5.5301 14.75483 19.96609 -40.94098 90.66043 -78.38812 15.605 4.09764 98.25301 -11.50105 -7.39331 -77.25286 -7.70561 -2.09353 -3.3007 99.63473 11.80079 8.63991 -71.26746 -10.67178 2.81652 3.80421
0.14498 -0.14957 0.01249 181.42517 -31.17844 0.361 37.03615 -0.22527 -2.06403 -2.46042 -2.05486 -2.1199 81.7667 -35.71999 52.02907 99.56988 66.97307 15.95933 -6.14009 14.77659 19.91968 -41.08704 90.44021 -78.26186 15.53433 4.3087 98.33753 -11.65543 -7.53605 -77.25508 -7.70541 -2.06983 -3.28806 99.71943 11.91065 8.84648 -71.25177 -10.65841 2.79688 3.79373
0.14497 -0.1495 0.01252 181.46894 -31.27799 0.34733 37.08731 -0.21846 -2.15982 -2.0843 -2.05659 -2.1199 85.04653 -35.95834 53.0641 99.34096 64.85376 14.72929 -6.69564 14.78378 19.86775 -41.17733 90.27812 -78.12351 15.46302 4.45178 98.42286 -11.77508 -7.63708 -77.25593 -7.70629 -2.04992 -3.27797 99.80651 11.98556 9 -71.23556 -10.64963 2.78036 3.78526
0.14493 -0.1494 0.01256 181.50875 -31.37319 0.32785 37.12383 -0.20481 -2.21665 -1.65337 -2.05356 -2.1199 87.21993 -35.83286 53.12723 98.99798 64.09926 13.7348 -7.10019 14.72754 19.77686 -41.08274 90.26095 -77.98961 15.41381 4.38337 98.51367 -11.78151 -7.59888 -77.2533 -7.71108 -2.04218 -3.27586 99.90272 11.94173 8.97683 -71.21721 -10.65628 2.77472 3.78363
0.14489 -0.14929 0.0126 181.54711 -31.46638 0.30556 37.15447 -0.18778 -2.25813 -1.20162 -2.0486 -2.1199 88.97243 -35.58274 52.84685 98.61816 63.85512 12.82045 -7.43906 14.65389 19.67752 -40.92836 90.2995 -77.85248 15.36378 4.24467 98.60502 -11.75206 -7.51776 -77.24935 -7.71703 -2.03838 -3.27635 100.00106 11.86153 8.89819 -71.19849 -10.66769 2.7724 3.7841
0.14485 -0.14919 0.01263 181.58545 -31.55992 0.28427 37.18742 -0.17191 -2.30638 -0.75954 -2.04434 -2.1199 90.87523 -35.37386 52.69401 98.25763 63.439 11.88281 -7.78374 14.58833 19.5817 -40.80107 90.31126 -77.72794 15.30443 4.14027 98.69478 -11.74221 -7.46137 -77.24605 -7.72231 -2.03251 -3.27545 100.09735 11.80182 8.84928 -71.18038 -10.67643 2.76828 3.78342
0.14481 -0.14908 0.01267 181.6271 -31.65612 0.26378 37.22173 -0.15717 -2.35501 -0.31486 -2.04083 -2.1199 92.96053 -35.23846 52.67598 97.88589 62.75817 10.87923 -8.23223 14.52428 19.48951 -40.6769 90.3315 -77.5517 15.28208 4.02807 98.79014 -11.72062 -7.38572 -77.24248 -7.72806 -2.02758 -3.27531 100.19821 11.72803 8.78507 -71.16039 -10.68701 2.76506 3.78341
